<svg xmlns="http://www.w3.org/2000/svg" xmlns:xlink="http://www.w3.org/1999/xlink" width="500" zoomAndPan="magnify" viewBox="0 0 375 374.999991" height="500" preserveAspectRatio="xMidYMid meet" version="1.0"><defs><filter x="0%" y="0%" width="100%" height="100%" id="c41b81bcfc"><feColorMatrix values="0 0 0 0 1 0 0 0 0 1 0 0 0 0 1 0 0 0 1 0" color-interpolation-filters="sRGB"/></filter><g/><clipPath id="f39aefbad0"><path d="M 145 129 L 203 129 L 203 205 L 145 205 Z M 145 129 " clip-rule="nonzero"/></clipPath><clipPath id="c13e132066"><path d="M 172.992188 108.828125 L 230.25 184.339844 L 175.640625 225.746094 L 118.382812 150.230469 Z M 172.992188 108.828125 " clip-rule="nonzero"/></clipPath><clipPath id="367aafd64c"><path d="M 201.574219 146.523438 L 202.851562 204.921875 L 146.964844 187.925781 L 145.6875 129.527344 Z M 201.574219 146.523438 " clip-rule="nonzero"/></clipPath><clipPath id="bfe5c816bb"><path d="M 172.992188 108.828125 L 230.085938 184.128906 L 175.480469 225.53125 L 118.382812 150.230469 Z M 172.992188 108.828125 " clip-rule="nonzero"/></clipPath><linearGradient x1="-0.0000138462" gradientTransform="matrix(0.16174, 0.213317, -0.213317, 0.16174, 172.99362, 108.826267)" y1="0" x2="353.42672" gradientUnits="userSpaceOnUse" y2="0" id="a436881b3a"><stop stop-opacity="1" stop-color="rgb(100%, 100%, 100%)" offset="0"/><stop stop-opacity="1" stop-color="rgb(99.845886%, 99.845886%, 99.845886%)" offset="0.0078125"/><stop stop-opacity="1" stop-color="rgb(99.539185%, 99.539185%, 99.539185%)" offset="0.015625"/><stop stop-opacity="1" stop-color="rgb(99.232483%, 99.232483%, 99.232483%)" offset="0.0234375"/><stop stop-opacity="1" stop-color="rgb(98.927307%, 98.927307%, 98.927307%)" offset="0.03125"/><stop stop-opacity="1" stop-color="rgb(98.620605%, 98.620605%, 98.620605%)" offset="0.0390625"/><stop stop-opacity="1" stop-color="rgb(98.313904%, 98.313904%, 98.313904%)" offset="0.046875"/><stop stop-opacity="1" stop-color="rgb(98.008728%, 98.008728%, 98.008728%)" offset="0.0546875"/><stop stop-opacity="1" stop-color="rgb(97.702026%, 97.702026%, 97.702026%)" offset="0.0625"/><stop stop-opacity="1" stop-color="rgb(97.395325%, 97.395325%, 97.395325%)" offset="0.0703125"/><stop stop-opacity="1" stop-color="rgb(97.088623%, 97.088623%, 97.088623%)" offset="0.078125"/><stop stop-opacity="1" stop-color="rgb(96.783447%, 96.783447%, 96.783447%)" offset="0.0859375"/><stop stop-opacity="1" stop-color="rgb(96.476746%, 96.476746%, 96.476746%)" offset="0.09375"/><stop stop-opacity="1" stop-color="rgb(96.170044%, 96.170044%, 96.170044%)" offset="0.101563"/><stop stop-opacity="1" stop-color="rgb(95.864868%, 95.864868%, 95.864868%)" offset="0.109375"/><stop stop-opacity="1" stop-color="rgb(95.558167%, 95.558167%, 95.558167%)" offset="0.117188"/><stop stop-opacity="1" stop-color="rgb(95.251465%, 95.251465%, 95.251465%)" offset="0.125"/><stop stop-opacity="1" stop-color="rgb(94.944763%, 94.944763%, 94.944763%)" offset="0.132813"/><stop stop-opacity="1" stop-color="rgb(94.639587%, 94.639587%, 94.639587%)" offset="0.140625"/><stop stop-opacity="1" stop-color="rgb(94.332886%, 94.332886%, 94.332886%)" offset="0.148438"/><stop stop-opacity="1" stop-color="rgb(94.026184%, 94.026184%, 94.026184%)" offset="0.15625"/><stop stop-opacity="1" stop-color="rgb(93.721008%, 93.721008%, 93.721008%)" offset="0.164063"/><stop stop-opacity="1" stop-color="rgb(93.414307%, 93.414307%, 93.414307%)" offset="0.171875"/><stop stop-opacity="1" stop-color="rgb(93.107605%, 93.107605%, 93.107605%)" offset="0.179688"/><stop stop-opacity="1" stop-color="rgb(92.802429%, 92.802429%, 92.802429%)" offset="0.1875"/><stop stop-opacity="1" stop-color="rgb(92.495728%, 92.495728%, 92.495728%)" offset="0.195313"/><stop stop-opacity="1" stop-color="rgb(92.189026%, 92.189026%, 92.189026%)" offset="0.203125"/><stop stop-opacity="1" stop-color="rgb(91.882324%, 91.882324%, 91.882324%)" offset="0.210938"/><stop stop-opacity="1" stop-color="rgb(91.577148%, 91.577148%, 91.577148%)" offset="0.21875"/><stop stop-opacity="1" stop-color="rgb(91.270447%, 91.270447%, 91.270447%)" offset="0.226563"/><stop stop-opacity="1" stop-color="rgb(90.963745%, 90.963745%, 90.963745%)" offset="0.234375"/><stop stop-opacity="1" stop-color="rgb(90.658569%, 90.658569%, 90.658569%)" offset="0.242188"/><stop stop-opacity="1" stop-color="rgb(90.351868%, 90.351868%, 90.351868%)" offset="0.25"/><stop stop-opacity="1" stop-color="rgb(90.045166%, 90.045166%, 90.045166%)" offset="0.257813"/><stop stop-opacity="1" stop-color="rgb(89.738464%, 89.738464%, 89.738464%)" offset="0.265625"/><stop stop-opacity="1" stop-color="rgb(89.433289%, 89.433289%, 89.433289%)" offset="0.273438"/><stop stop-opacity="1" stop-color="rgb(89.126587%, 89.126587%, 89.126587%)" offset="0.28125"/><stop stop-opacity="1" stop-color="rgb(88.819885%, 88.819885%, 88.819885%)" offset="0.289063"/><stop stop-opacity="1" stop-color="rgb(88.514709%, 88.514709%, 88.514709%)" offset="0.296875"/><stop stop-opacity="1" stop-color="rgb(88.208008%, 88.208008%, 88.208008%)" offset="0.304688"/><stop stop-opacity="1" stop-color="rgb(87.901306%, 87.901306%, 87.901306%)" offset="0.3125"/><stop stop-opacity="1" stop-color="rgb(87.59613%, 87.59613%, 87.59613%)" offset="0.320313"/><stop stop-opacity="1" stop-color="rgb(87.289429%, 87.289429%, 87.289429%)" offset="0.328125"/><stop stop-opacity="1" stop-color="rgb(86.982727%, 86.982727%, 86.982727%)" offset="0.335938"/><stop stop-opacity="1" stop-color="rgb(86.676025%, 86.676025%, 86.676025%)" offset="0.34375"/><stop stop-opacity="1" stop-color="rgb(86.37085%, 86.37085%, 86.37085%)" offset="0.351563"/><stop stop-opacity="1" stop-color="rgb(86.064148%, 86.064148%, 86.064148%)" offset="0.359375"/><stop stop-opacity="1" stop-color="rgb(85.757446%, 85.757446%, 85.757446%)" offset="0.367188"/><stop stop-opacity="1" stop-color="rgb(85.452271%, 85.452271%, 85.452271%)" offset="0.375"/><stop stop-opacity="1" stop-color="rgb(85.145569%, 85.145569%, 85.145569%)" offset="0.382813"/><stop stop-opacity="1" stop-color="rgb(84.838867%, 84.838867%, 84.838867%)" offset="0.390625"/><stop stop-opacity="1" stop-color="rgb(84.532166%, 84.532166%, 84.532166%)" offset="0.398438"/><stop stop-opacity="1" stop-color="rgb(84.22699%, 84.22699%, 84.22699%)" offset="0.40625"/><stop stop-opacity="1" stop-color="rgb(83.920288%, 83.920288%, 83.920288%)" offset="0.414063"/><stop stop-opacity="1" stop-color="rgb(83.613586%, 83.613586%, 83.613586%)" offset="0.421875"/><stop stop-opacity="1" stop-color="rgb(83.308411%, 83.308411%, 83.308411%)" offset="0.429688"/><stop stop-opacity="1" stop-color="rgb(83.001709%, 83.001709%, 83.001709%)" offset="0.4375"/><stop stop-opacity="1" stop-color="rgb(82.695007%, 82.695007%, 82.695007%)" offset="0.445313"/><stop stop-opacity="1" stop-color="rgb(82.389832%, 82.389832%, 82.389832%)" offset="0.453125"/><stop stop-opacity="1" stop-color="rgb(82.08313%, 82.08313%, 82.08313%)" offset="0.460938"/><stop stop-opacity="1" stop-color="rgb(81.776428%, 81.776428%, 81.776428%)" offset="0.46875"/><stop stop-opacity="1" stop-color="rgb(81.469727%, 81.469727%, 81.469727%)" offset="0.476563"/><stop stop-opacity="1" stop-color="rgb(81.164551%, 81.164551%, 81.164551%)" offset="0.484375"/><stop stop-opacity="1" stop-color="rgb(80.857849%, 80.857849%, 80.857849%)" offset="0.492188"/><stop stop-opacity="1" stop-color="rgb(80.551147%, 80.551147%, 80.551147%)" offset="0.5"/><stop stop-opacity="1" stop-color="rgb(80.245972%, 80.245972%, 80.245972%)" offset="0.507812"/><stop stop-opacity="1" stop-color="rgb(79.93927%, 79.93927%, 79.93927%)" offset="0.515625"/><stop stop-opacity="1" stop-color="rgb(79.632568%, 79.632568%, 79.632568%)" offset="0.523438"/><stop stop-opacity="1" stop-color="rgb(79.325867%, 79.325867%, 79.325867%)" offset="0.53125"/><stop stop-opacity="1" stop-color="rgb(79.020691%, 79.020691%, 79.020691%)" offset="0.539063"/><stop stop-opacity="1" stop-color="rgb(78.713989%, 78.713989%, 78.713989%)" offset="0.546875"/><stop stop-opacity="1" stop-color="rgb(78.407288%, 78.407288%, 78.407288%)" offset="0.554688"/><stop stop-opacity="1" stop-color="rgb(78.102112%, 78.102112%, 78.102112%)" offset="0.5625"/><stop stop-opacity="1" stop-color="rgb(77.79541%, 77.79541%, 77.79541%)" offset="0.570313"/><stop stop-opacity="1" stop-color="rgb(77.488708%, 77.488708%, 77.488708%)" offset="0.578125"/><stop stop-opacity="1" stop-color="rgb(77.182007%, 77.182007%, 77.182007%)" offset="0.585938"/><stop stop-opacity="1" stop-color="rgb(76.876831%, 76.876831%, 76.876831%)" offset="0.59375"/><stop stop-opacity="1" stop-color="rgb(76.570129%, 76.570129%, 76.570129%)" offset="0.601563"/><stop stop-opacity="1" stop-color="rgb(76.263428%, 76.263428%, 76.263428%)" offset="0.609375"/><stop stop-opacity="1" stop-color="rgb(75.958252%, 75.958252%, 75.958252%)" offset="0.617188"/><stop stop-opacity="1" stop-color="rgb(75.65155%, 75.65155%, 75.65155%)" offset="0.625"/><stop stop-opacity="1" stop-color="rgb(75.344849%, 75.344849%, 75.344849%)" offset="0.632813"/><stop stop-opacity="1" stop-color="rgb(75.039673%, 75.039673%, 75.039673%)" offset="0.640625"/><stop stop-opacity="1" stop-color="rgb(74.732971%, 74.732971%, 74.732971%)" offset="0.648438"/><stop stop-opacity="1" stop-color="rgb(74.42627%, 74.42627%, 74.42627%)" offset="0.65625"/><stop stop-opacity="1" stop-color="rgb(74.119568%, 74.119568%, 74.119568%)" offset="0.664063"/><stop stop-opacity="1" stop-color="rgb(73.814392%, 73.814392%, 73.814392%)" offset="0.671875"/><stop stop-opacity="1" stop-color="rgb(73.50769%, 73.50769%, 73.50769%)" offset="0.679688"/><stop stop-opacity="1" stop-color="rgb(73.200989%, 73.200989%, 73.200989%)" offset="0.6875"/><stop stop-opacity="1" stop-color="rgb(72.895813%, 72.895813%, 72.895813%)" offset="0.695313"/><stop stop-opacity="1" stop-color="rgb(72.589111%, 72.589111%, 72.589111%)" offset="0.703125"/><stop stop-opacity="1" stop-color="rgb(72.28241%, 72.28241%, 72.28241%)" offset="0.710938"/><stop stop-opacity="1" stop-color="rgb(71.975708%, 71.975708%, 71.975708%)" offset="0.71875"/><stop stop-opacity="1" stop-color="rgb(71.670532%, 71.670532%, 71.670532%)" offset="0.726563"/><stop stop-opacity="1" stop-color="rgb(71.363831%, 71.363831%, 71.363831%)" offset="0.734375"/><stop stop-opacity="1" stop-color="rgb(71.057129%, 71.057129%, 71.057129%)" offset="0.742188"/><stop stop-opacity="1" stop-color="rgb(70.751953%, 70.751953%, 70.751953%)" offset="0.75"/><stop stop-opacity="1" stop-color="rgb(70.445251%, 70.445251%, 70.445251%)" offset="0.757813"/><stop stop-opacity="1" stop-color="rgb(70.13855%, 70.13855%, 70.13855%)" offset="0.765625"/><stop stop-opacity="1" stop-color="rgb(69.833374%, 69.833374%, 69.833374%)" offset="0.773438"/><stop stop-opacity="1" stop-color="rgb(69.526672%, 69.526672%, 69.526672%)" offset="0.78125"/><stop stop-opacity="1" stop-color="rgb(69.219971%, 69.219971%, 69.219971%)" offset="0.789063"/><stop stop-opacity="1" stop-color="rgb(68.913269%, 68.913269%, 68.913269%)" offset="0.796875"/><stop stop-opacity="1" stop-color="rgb(68.608093%, 68.608093%, 68.608093%)" offset="0.804688"/><stop stop-opacity="1" stop-color="rgb(68.301392%, 68.301392%, 68.301392%)" offset="0.8125"/><stop stop-opacity="1" stop-color="rgb(67.99469%, 67.99469%, 67.99469%)" offset="0.820313"/><stop stop-opacity="1" stop-color="rgb(67.689514%, 67.689514%, 67.689514%)" offset="0.828125"/><stop stop-opacity="1" stop-color="rgb(67.382812%, 67.382812%, 67.382812%)" offset="0.835938"/><stop stop-opacity="1" stop-color="rgb(67.076111%, 67.076111%, 67.076111%)" offset="0.84375"/><stop stop-opacity="1" stop-color="rgb(66.769409%, 66.769409%, 66.769409%)" offset="0.851563"/><stop stop-opacity="1" stop-color="rgb(66.464233%, 66.464233%, 66.464233%)" offset="0.859375"/><stop stop-opacity="1" stop-color="rgb(66.157532%, 66.157532%, 66.157532%)" offset="0.867188"/><stop stop-opacity="1" stop-color="rgb(65.85083%, 65.85083%, 65.85083%)" offset="0.875"/><stop stop-opacity="1" stop-color="rgb(65.545654%, 65.545654%, 65.545654%)" offset="0.882813"/><stop stop-opacity="1" stop-color="rgb(65.238953%, 65.238953%, 65.238953%)" offset="0.890625"/><stop stop-opacity="1" stop-color="rgb(64.932251%, 64.932251%, 64.932251%)" offset="0.898438"/><stop stop-opacity="1" stop-color="rgb(64.627075%, 64.627075%, 64.627075%)" offset="0.90625"/><stop stop-opacity="1" stop-color="rgb(64.320374%, 64.320374%, 64.320374%)" offset="0.914063"/><stop stop-opacity="1" stop-color="rgb(64.013672%, 64.013672%, 64.013672%)" offset="0.921875"/><stop stop-opacity="1" stop-color="rgb(63.70697%, 63.70697%, 63.70697%)" offset="0.929688"/><stop stop-opacity="1" stop-color="rgb(63.401794%, 63.401794%, 63.401794%)" offset="0.9375"/><stop stop-opacity="1" stop-color="rgb(63.095093%, 63.095093%, 63.095093%)" offset="0.945313"/><stop stop-opacity="1" stop-color="rgb(62.788391%, 62.788391%, 62.788391%)" offset="0.953125"/><stop stop-opacity="1" stop-color="rgb(62.483215%, 62.483215%, 62.483215%)" offset="0.960938"/><stop stop-opacity="1" stop-color="rgb(62.176514%, 62.176514%, 62.176514%)" offset="0.96875"/><stop stop-opacity="1" stop-color="rgb(61.869812%, 61.869812%, 61.869812%)" offset="0.976563"/><stop stop-opacity="1" stop-color="rgb(61.56311%, 61.56311%, 61.56311%)" offset="0.984375"/><stop stop-opacity="1" stop-color="rgb(61.257935%, 61.257935%, 61.257935%)" offset="0.992188"/><stop stop-opacity="1" stop-color="rgb(60.951233%, 60.951233%, 60.951233%)" offset="1"/></linearGradient><mask id="155f5be735"><g filter="url(#c41b81bcfc)"><rect x="-37.5" width="450" fill="#000000" y="-37.499999" height="449.999989" fill-opacity="0.5"/></g></mask><clipPath id="4b07797d30"><path d="M 0.441406 0.601562 L 13.398438 0.601562 L 13.398438 71.878906 L 0.441406 71.878906 Z M 0.441406 0.601562 " clip-rule="nonzero"/></clipPath><clipPath id="b54fec3b0a"><path d="M 1.894531 71.652344 L 0.558594 0.960938 L 11.945312 0.746094 L 13.285156 71.4375 Z M 1.894531 71.652344 " clip-rule="nonzero"/></clipPath><clipPath id="3df2f41787"><path d="M 0.789062 13.296875 L 1.894531 71.652344 L 13.050781 59.136719 L 11.945312 0.78125 Z M 0.789062 13.296875 " clip-rule="nonzero"/></clipPath><clipPath id="0e440b9c2c"><rect x="0" width="14" y="0" height="72"/></clipPath><mask id="63d9ea78e8"><g filter="url(#c41b81bcfc)"><rect x="-37.5" width="450" fill="#000000" y="-37.499999" height="449.999989" fill-opacity="0.5"/></g></mask><clipPath id="366f4474ba"><path d="M 0.601562 2 L 67.558594 2 L 67.558594 33 L 0.601562 33 Z M 0.601562 2 " clip-rule="nonzero"/></clipPath><clipPath id="3a9c39b464"><path d="M 5.203125 0.949219 L 67.429688 19.523438 L 63.050781 34.191406 L 0.824219 15.617188 Z M 5.203125 0.949219 " clip-rule="nonzero"/></clipPath><clipPath id="6b3fca26d0"><path d="M 11.90625 2.949219 L 67.414062 19.519531 L 56.332031 32.1875 L 0.824219 15.617188 Z M 11.90625 2.949219 " clip-rule="nonzero"/></clipPath><clipPath id="3d01a5f9db"><rect x="0" width="68" y="0" height="35"/></clipPath><clipPath id="5a5db995e7"><path d="M 156 130 L 205 130 L 205 193 L 156 193 Z M 156 130 " clip-rule="nonzero"/></clipPath><clipPath id="0579435429"><path d="M 179.136719 112.746094 L 226.933594 175.78125 L 181.347656 210.347656 L 133.550781 147.308594 Z M 179.136719 112.746094 " clip-rule="nonzero"/></clipPath><clipPath id="7a8dc6b2d3"><path d="M 202.996094 144.210938 L 204.0625 192.960938 L 157.410156 178.777344 L 156.34375 130.027344 Z M 202.996094 144.210938 " clip-rule="nonzero"/></clipPath><clipPath id="d8feaa2614"><path d="M 172 104 L 230 104 L 230 181 L 172 181 Z M 172 104 " clip-rule="nonzero"/></clipPath><clipPath id="94fcd3bb58"><path d="M 199.449219 84.199219 L 256.707031 159.710938 L 202.097656 201.117188 L 144.839844 125.605469 Z M 199.449219 84.199219 " clip-rule="nonzero"/></clipPath><clipPath id="8a75aac725"><path d="M 228.03125 121.894531 L 229.308594 180.292969 L 173.421875 163.300781 L 172.144531 104.902344 Z M 228.03125 121.894531 " clip-rule="nonzero"/></clipPath><clipPath id="ef95b5b12a"><path d="M 199.449219 84.199219 L 256.542969 159.5 L 201.933594 200.90625 L 144.839844 125.605469 Z M 199.449219 84.199219 " clip-rule="nonzero"/></clipPath><linearGradient x1="-0.0000722755" gradientTransform="matrix(0.16174, 0.213317, -0.213317, 0.16174, 199.4493, 84.198338)" y1="0" x2="353.426654" gradientUnits="userSpaceOnUse" y2="0" id="40871917a3"><stop stop-opacity="1" stop-color="rgb(100%, 100%, 100%)" offset="0"/><stop stop-opacity="1" stop-color="rgb(99.845886%, 99.845886%, 99.845886%)" offset="0.0078125"/><stop stop-opacity="1" stop-color="rgb(99.539185%, 99.539185%, 99.539185%)" offset="0.015625"/><stop stop-opacity="1" stop-color="rgb(99.232483%, 99.232483%, 99.232483%)" offset="0.0234375"/><stop stop-opacity="1" stop-color="rgb(98.927307%, 98.927307%, 98.927307%)" offset="0.03125"/><stop stop-opacity="1" stop-color="rgb(98.620605%, 98.620605%, 98.620605%)" offset="0.0390625"/><stop stop-opacity="1" stop-color="rgb(98.313904%, 98.313904%, 98.313904%)" offset="0.046875"/><stop stop-opacity="1" stop-color="rgb(98.008728%, 98.008728%, 98.008728%)" offset="0.0546875"/><stop stop-opacity="1" stop-color="rgb(97.702026%, 97.702026%, 97.702026%)" offset="0.0625"/><stop stop-opacity="1" stop-color="rgb(97.395325%, 97.395325%, 97.395325%)" offset="0.0703125"/><stop stop-opacity="1" stop-color="rgb(97.088623%, 97.088623%, 97.088623%)" offset="0.078125"/><stop stop-opacity="1" stop-color="rgb(96.783447%, 96.783447%, 96.783447%)" offset="0.0859375"/><stop stop-opacity="1" stop-color="rgb(96.476746%, 96.476746%, 96.476746%)" offset="0.09375"/><stop stop-opacity="1" stop-color="rgb(96.170044%, 96.170044%, 96.170044%)" offset="0.101563"/><stop stop-opacity="1" stop-color="rgb(95.864868%, 95.864868%, 95.864868%)" offset="0.109375"/><stop stop-opacity="1" stop-color="rgb(95.558167%, 95.558167%, 95.558167%)" offset="0.117188"/><stop stop-opacity="1" stop-color="rgb(95.251465%, 95.251465%, 95.251465%)" offset="0.125"/><stop stop-opacity="1" stop-color="rgb(94.944763%, 94.944763%, 94.944763%)" offset="0.132813"/><stop stop-opacity="1" stop-color="rgb(94.639587%, 94.639587%, 94.639587%)" offset="0.140625"/><stop stop-opacity="1" stop-color="rgb(94.332886%, 94.332886%, 94.332886%)" offset="0.148438"/><stop stop-opacity="1" stop-color="rgb(94.026184%, 94.026184%, 94.026184%)" offset="0.15625"/><stop stop-opacity="1" stop-color="rgb(93.721008%, 93.721008%, 93.721008%)" offset="0.164063"/><stop stop-opacity="1" stop-color="rgb(93.414307%, 93.414307%, 93.414307%)" offset="0.171875"/><stop stop-opacity="1" stop-color="rgb(93.107605%, 93.107605%, 93.107605%)" offset="0.179688"/><stop stop-opacity="1" stop-color="rgb(92.802429%, 92.802429%, 92.802429%)" offset="0.1875"/><stop stop-opacity="1" stop-color="rgb(92.495728%, 92.495728%, 92.495728%)" offset="0.195313"/><stop stop-opacity="1" stop-color="rgb(92.189026%, 92.189026%, 92.189026%)" offset="0.203125"/><stop stop-opacity="1" stop-color="rgb(91.882324%, 91.882324%, 91.882324%)" offset="0.210938"/><stop stop-opacity="1" stop-color="rgb(91.577148%, 91.577148%, 91.577148%)" offset="0.21875"/><stop stop-opacity="1" stop-color="rgb(91.270447%, 91.270447%, 91.270447%)" offset="0.226563"/><stop stop-opacity="1" stop-color="rgb(90.963745%, 90.963745%, 90.963745%)" offset="0.234375"/><stop stop-opacity="1" stop-color="rgb(90.658569%, 90.658569%, 90.658569%)" offset="0.242188"/><stop stop-opacity="1" stop-color="rgb(90.351868%, 90.351868%, 90.351868%)" offset="0.25"/><stop stop-opacity="1" stop-color="rgb(90.045166%, 90.045166%, 90.045166%)" offset="0.257812"/><stop stop-opacity="1" stop-color="rgb(89.738464%, 89.738464%, 89.738464%)" offset="0.265625"/><stop stop-opacity="1" stop-color="rgb(89.433289%, 89.433289%, 89.433289%)" offset="0.273438"/><stop stop-opacity="1" stop-color="rgb(89.126587%, 89.126587%, 89.126587%)" offset="0.28125"/><stop stop-opacity="1" stop-color="rgb(88.819885%, 88.819885%, 88.819885%)" offset="0.289062"/><stop stop-opacity="1" stop-color="rgb(88.514709%, 88.514709%, 88.514709%)" offset="0.296875"/><stop stop-opacity="1" stop-color="rgb(88.208008%, 88.208008%, 88.208008%)" offset="0.304687"/><stop stop-opacity="1" stop-color="rgb(87.901306%, 87.901306%, 87.901306%)" offset="0.3125"/><stop stop-opacity="1" stop-color="rgb(87.59613%, 87.59613%, 87.59613%)" offset="0.320312"/><stop stop-opacity="1" stop-color="rgb(87.289429%, 87.289429%, 87.289429%)" offset="0.328125"/><stop stop-opacity="1" stop-color="rgb(86.982727%, 86.982727%, 86.982727%)" offset="0.335938"/><stop stop-opacity="1" stop-color="rgb(86.676025%, 86.676025%, 86.676025%)" offset="0.34375"/><stop stop-opacity="1" stop-color="rgb(86.37085%, 86.37085%, 86.37085%)" offset="0.351562"/><stop stop-opacity="1" stop-color="rgb(86.064148%, 86.064148%, 86.064148%)" offset="0.359375"/><stop stop-opacity="1" stop-color="rgb(85.757446%, 85.757446%, 85.757446%)" offset="0.367187"/><stop stop-opacity="1" stop-color="rgb(85.452271%, 85.452271%, 85.452271%)" offset="0.375"/><stop stop-opacity="1" stop-color="rgb(85.145569%, 85.145569%, 85.145569%)" offset="0.382812"/><stop stop-opacity="1" stop-color="rgb(84.838867%, 84.838867%, 84.838867%)" offset="0.390625"/><stop stop-opacity="1" stop-color="rgb(84.532166%, 84.532166%, 84.532166%)" offset="0.398438"/><stop stop-opacity="1" stop-color="rgb(84.22699%, 84.22699%, 84.22699%)" offset="0.40625"/><stop stop-opacity="1" stop-color="rgb(83.920288%, 83.920288%, 83.920288%)" offset="0.414062"/><stop stop-opacity="1" stop-color="rgb(83.613586%, 83.613586%, 83.613586%)" offset="0.421875"/><stop stop-opacity="1" stop-color="rgb(83.308411%, 83.308411%, 83.308411%)" offset="0.429687"/><stop stop-opacity="1" stop-color="rgb(83.001709%, 83.001709%, 83.001709%)" offset="0.4375"/><stop stop-opacity="1" stop-color="rgb(82.695007%, 82.695007%, 82.695007%)" offset="0.445312"/><stop stop-opacity="1" stop-color="rgb(82.389832%, 82.389832%, 82.389832%)" offset="0.453125"/><stop stop-opacity="1" stop-color="rgb(82.08313%, 82.08313%, 82.08313%)" offset="0.460938"/><stop stop-opacity="1" stop-color="rgb(81.776428%, 81.776428%, 81.776428%)" offset="0.46875"/><stop stop-opacity="1" stop-color="rgb(81.469727%, 81.469727%, 81.469727%)" offset="0.476562"/><stop stop-opacity="1" stop-color="rgb(81.164551%, 81.164551%, 81.164551%)" offset="0.484375"/><stop stop-opacity="1" stop-color="rgb(80.857849%, 80.857849%, 80.857849%)" offset="0.492188"/><stop stop-opacity="1" stop-color="rgb(80.551147%, 80.551147%, 80.551147%)" offset="0.5"/><stop stop-opacity="1" stop-color="rgb(80.245972%, 80.245972%, 80.245972%)" offset="0.507812"/><stop stop-opacity="1" stop-color="rgb(79.93927%, 79.93927%, 79.93927%)" offset="0.515625"/><stop stop-opacity="1" stop-color="rgb(79.632568%, 79.632568%, 79.632568%)" offset="0.523437"/><stop stop-opacity="1" stop-color="rgb(79.325867%, 79.325867%, 79.325867%)" offset="0.53125"/><stop stop-opacity="1" stop-color="rgb(79.020691%, 79.020691%, 79.020691%)" offset="0.539062"/><stop stop-opacity="1" stop-color="rgb(78.713989%, 78.713989%, 78.713989%)" offset="0.546875"/><stop stop-opacity="1" stop-color="rgb(78.407288%, 78.407288%, 78.407288%)" offset="0.554688"/><stop stop-opacity="1" stop-color="rgb(78.102112%, 78.102112%, 78.102112%)" offset="0.5625"/><stop stop-opacity="1" stop-color="rgb(77.79541%, 77.79541%, 77.79541%)" offset="0.570312"/><stop stop-opacity="1" stop-color="rgb(77.488708%, 77.488708%, 77.488708%)" offset="0.578125"/><stop stop-opacity="1" stop-color="rgb(77.182007%, 77.182007%, 77.182007%)" offset="0.585938"/><stop stop-opacity="1" stop-color="rgb(76.876831%, 76.876831%, 76.876831%)" offset="0.59375"/><stop stop-opacity="1" stop-color="rgb(76.570129%, 76.570129%, 76.570129%)" offset="0.601562"/><stop stop-opacity="1" stop-color="rgb(76.263428%, 76.263428%, 76.263428%)" offset="0.609375"/><stop stop-opacity="1" stop-color="rgb(75.958252%, 75.958252%, 75.958252%)" offset="0.617187"/><stop stop-opacity="1" stop-color="rgb(75.65155%, 75.65155%, 75.65155%)" offset="0.625"/><stop stop-opacity="1" stop-color="rgb(75.344849%, 75.344849%, 75.344849%)" offset="0.632812"/><stop stop-opacity="1" stop-color="rgb(75.039673%, 75.039673%, 75.039673%)" offset="0.640625"/><stop stop-opacity="1" stop-color="rgb(74.732971%, 74.732971%, 74.732971%)" offset="0.648438"/><stop stop-opacity="1" stop-color="rgb(74.42627%, 74.42627%, 74.42627%)" offset="0.65625"/><stop stop-opacity="1" stop-color="rgb(74.119568%, 74.119568%, 74.119568%)" offset="0.664062"/><stop stop-opacity="1" stop-color="rgb(73.814392%, 73.814392%, 73.814392%)" offset="0.671875"/><stop stop-opacity="1" stop-color="rgb(73.50769%, 73.50769%, 73.50769%)" offset="0.679687"/><stop stop-opacity="1" stop-color="rgb(73.200989%, 73.200989%, 73.200989%)" offset="0.6875"/><stop stop-opacity="1" stop-color="rgb(72.895813%, 72.895813%, 72.895813%)" offset="0.695312"/><stop stop-opacity="1" stop-color="rgb(72.589111%, 72.589111%, 72.589111%)" offset="0.703125"/><stop stop-opacity="1" stop-color="rgb(72.28241%, 72.28241%, 72.28241%)" offset="0.710937"/><stop stop-opacity="1" stop-color="rgb(71.975708%, 71.975708%, 71.975708%)" offset="0.71875"/><stop stop-opacity="1" stop-color="rgb(71.670532%, 71.670532%, 71.670532%)" offset="0.726562"/><stop stop-opacity="1" stop-color="rgb(71.363831%, 71.363831%, 71.363831%)" offset="0.734375"/><stop stop-opacity="1" stop-color="rgb(71.057129%, 71.057129%, 71.057129%)" offset="0.742187"/><stop stop-opacity="1" stop-color="rgb(70.751953%, 70.751953%, 70.751953%)" offset="0.75"/><stop stop-opacity="1" stop-color="rgb(70.445251%, 70.445251%, 70.445251%)" offset="0.757812"/><stop stop-opacity="1" stop-color="rgb(70.13855%, 70.13855%, 70.13855%)" offset="0.765625"/><stop stop-opacity="1" stop-color="rgb(69.833374%, 69.833374%, 69.833374%)" offset="0.773438"/><stop stop-opacity="1" stop-color="rgb(69.526672%, 69.526672%, 69.526672%)" offset="0.78125"/><stop stop-opacity="1" stop-color="rgb(69.219971%, 69.219971%, 69.219971%)" offset="0.789062"/><stop stop-opacity="1" stop-color="rgb(68.913269%, 68.913269%, 68.913269%)" offset="0.796875"/><stop stop-opacity="1" stop-color="rgb(68.608093%, 68.608093%, 68.608093%)" offset="0.804687"/><stop stop-opacity="1" stop-color="rgb(68.301392%, 68.301392%, 68.301392%)" offset="0.8125"/><stop stop-opacity="1" stop-color="rgb(67.99469%, 67.99469%, 67.99469%)" offset="0.820312"/><stop stop-opacity="1" stop-color="rgb(67.689514%, 67.689514%, 67.689514%)" offset="0.828125"/><stop stop-opacity="1" stop-color="rgb(67.382812%, 67.382812%, 67.382812%)" offset="0.835937"/><stop stop-opacity="1" stop-color="rgb(67.076111%, 67.076111%, 67.076111%)" offset="0.84375"/><stop stop-opacity="1" stop-color="rgb(66.769409%, 66.769409%, 66.769409%)" offset="0.851562"/><stop stop-opacity="1" stop-color="rgb(66.464233%, 66.464233%, 66.464233%)" offset="0.859375"/><stop stop-opacity="1" stop-color="rgb(66.157532%, 66.157532%, 66.157532%)" offset="0.867188"/><stop stop-opacity="1" stop-color="rgb(65.85083%, 65.85083%, 65.85083%)" offset="0.875"/><stop stop-opacity="1" stop-color="rgb(65.545654%, 65.545654%, 65.545654%)" offset="0.882812"/><stop stop-opacity="1" stop-color="rgb(65.238953%, 65.238953%, 65.238953%)" offset="0.890625"/><stop stop-opacity="1" stop-color="rgb(64.932251%, 64.932251%, 64.932251%)" offset="0.898438"/><stop stop-opacity="1" stop-color="rgb(64.627075%, 64.627075%, 64.627075%)" offset="0.90625"/><stop stop-opacity="1" stop-color="rgb(64.320374%, 64.320374%, 64.320374%)" offset="0.914062"/><stop stop-opacity="1" stop-color="rgb(64.013672%, 64.013672%, 64.013672%)" offset="0.921875"/><stop stop-opacity="1" stop-color="rgb(63.70697%, 63.70697%, 63.70697%)" offset="0.929688"/><stop stop-opacity="1" stop-color="rgb(63.401794%, 63.401794%, 63.401794%)" offset="0.9375"/><stop stop-opacity="1" stop-color="rgb(63.095093%, 63.095093%, 63.095093%)" offset="0.945312"/><stop stop-opacity="1" stop-color="rgb(62.788391%, 62.788391%, 62.788391%)" offset="0.953125"/><stop stop-opacity="1" stop-color="rgb(62.483215%, 62.483215%, 62.483215%)" offset="0.960937"/><stop stop-opacity="1" stop-color="rgb(62.176514%, 62.176514%, 62.176514%)" offset="0.96875"/><stop stop-opacity="1" stop-color="rgb(61.869812%, 61.869812%, 61.869812%)" offset="0.976562"/><stop stop-opacity="1" stop-color="rgb(61.56311%, 61.56311%, 61.56311%)" offset="0.984375"/><stop stop-opacity="1" stop-color="rgb(61.257935%, 61.257935%, 61.257935%)" offset="0.992188"/><stop stop-opacity="1" stop-color="rgb(60.951233%, 60.951233%, 60.951233%)" offset="1"/></linearGradient><mask id="2b0185d540"><g filter="url(#c41b81bcfc)"><rect x="-37.5" width="450" fill="#000000" y="-37.499999" height="449.999989" fill-opacity="0.5"/></g></mask><clipPath id="d7c3e43c6e"><path d="M 1 1 L 13.800781 1 L 13.800781 72.160156 L 1 72.160156 Z M 1 1 " clip-rule="nonzero"/></clipPath><clipPath id="403085fae9"><path d="M 2.351562 72.023438 L 1.011719 1.332031 L 12.402344 1.117188 L 13.742188 71.808594 Z M 2.351562 72.023438 " clip-rule="nonzero"/></clipPath><clipPath id="0b6c278206"><path d="M 1.246094 13.667969 L 2.351562 72.023438 L 13.507812 59.507812 L 12.402344 1.152344 Z M 1.246094 13.667969 " clip-rule="nonzero"/></clipPath><clipPath id="752799f911"><rect x="0" width="14" y="0" height="73"/></clipPath><mask id="4a95e12249"><g filter="url(#c41b81bcfc)"><rect x="-37.5" width="450" fill="#000000" y="-37.499999" height="449.999989" fill-opacity="0.5"/></g></mask><clipPath id="4c8d4032aa"><path d="M 0.238281 2 L 66.960938 2 L 66.960938 32 L 0.238281 32 Z M 0.238281 2 " clip-rule="nonzero"/></clipPath><clipPath id="56b70b06f4"><path d="M 4.660156 0.320312 L 66.886719 18.894531 L 62.507812 33.566406 L 0.28125 14.988281 Z M 4.660156 0.320312 " clip-rule="nonzero"/></clipPath><clipPath id="e35aaa8245"><path d="M 11.359375 2.320312 L 66.867188 18.890625 L 55.785156 31.558594 L 0.28125 14.988281 Z M 11.359375 2.320312 " clip-rule="nonzero"/></clipPath><clipPath id="e9d777de3a"><rect x="0" width="67" y="0" height="34"/></clipPath><clipPath id="da0814a6ca"><path d="M 182 105 L 231 105 L 231 169 L 182 169 Z M 182 105 " clip-rule="nonzero"/></clipPath><clipPath id="b5672d56ef"><path d="M 205.59375 88.117188 L 253.390625 151.152344 L 207.804688 185.71875 L 160.007812 122.679688 Z M 205.59375 88.117188 " clip-rule="nonzero"/></clipPath><clipPath id="1b4ed9db25"><path d="M 229.453125 119.585938 L 230.519531 168.335938 L 183.867188 154.148438 L 182.800781 105.398438 Z M 229.453125 119.585938 " clip-rule="nonzero"/></clipPath></defs><g clip-path="url(#f39aefbad0)"><g clip-path="url(#c13e132066)"><g clip-path="url(#367aafd64c)"><g clip-path="url(#bfe5c816bb)"><path fill="url(#a436881b3a)" d="M 181.984375 102.007812 L 109.390625 157.050781 L 166.554688 232.441406 L 239.148438 177.398438 Z M 181.984375 102.007812 " fill-rule="nonzero"/></g></g></g></g><g mask="url(#155f5be735)"><g transform="matrix(1, 0, 0, 1, 133, 129)"><g clip-path="url(#0e440b9c2c)"><g clip-path="url(#4b07797d30)"><g clip-path="url(#b54fec3b0a)"><g clip-path="url(#3df2f41787)"><path fill="#ffffff" d="M 1.894531 71.652344 L 0.558594 1.007812 L 11.945312 0.789062 L 13.285156 71.4375 Z M 1.894531 71.652344 " fill-opacity="1" fill-rule="nonzero"/></g></g></g></g></g></g><g mask="url(#63d9ea78e8)"><g transform="matrix(1, 0, 0, 1, 135, 186)"><g clip-path="url(#3d01a5f9db)"><g clip-path="url(#366f4474ba)"><g clip-path="url(#3a9c39b464)"><g clip-path="url(#6b3fca26d0)"><path fill="#737373" d="M 5.203125 0.949219 L 67.429688 19.523438 L 63.050781 34.191406 L 0.824219 15.617188 Z M 5.203125 0.949219 " fill-opacity="1" fill-rule="nonzero"/></g></g></g></g></g></g><g clip-path="url(#5a5db995e7)"><g clip-path="url(#0579435429)"><g clip-path="url(#7a8dc6b2d3)"><path fill="#000000" d="M 179.136719 112.746094 L 226.800781 175.605469 L 181.210938 210.167969 L 133.550781 147.308594 Z M 179.136719 112.746094 " fill-opacity="1" fill-rule="nonzero"/></g></g></g><g clip-path="url(#d8feaa2614)"><g clip-path="url(#94fcd3bb58)"><g clip-path="url(#8a75aac725)"><g clip-path="url(#ef95b5b12a)"><path fill="url(#40871917a3)" d="M 208.441406 77.378906 L 135.847656 132.421875 L 193.011719 207.8125 L 265.605469 152.773438 Z M 208.441406 77.378906 " fill-rule="nonzero"/></g></g></g></g><g mask="url(#2b0185d540)"><g transform="matrix(1, 0, 0, 1, 159, 104)"><g clip-path="url(#752799f911)"><g clip-path="url(#d7c3e43c6e)"><g clip-path="url(#403085fae9)"><g clip-path="url(#0b6c278206)"><path fill="#ffffff" d="M 2.351562 72.023438 L 1.011719 1.378906 L 12.402344 1.164062 L 13.742188 71.808594 Z M 2.351562 72.023438 " fill-opacity="1" fill-rule="nonzero"/></g></g></g></g></g></g><g mask="url(#4a95e12249)"><g transform="matrix(1, 0, 0, 1, 162, 162)"><g clip-path="url(#e9d777de3a)"><g clip-path="url(#4c8d4032aa)"><g clip-path="url(#56b70b06f4)"><g clip-path="url(#e35aaa8245)"><path fill="#737373" d="M 4.660156 0.320312 L 66.886719 18.894531 L 62.507812 33.566406 L 0.28125 14.988281 Z M 4.660156 0.320312 " fill-opacity="1" fill-rule="nonzero"/></g></g></g></g></g></g><g clip-path="url(#da0814a6ca)"><g clip-path="url(#b5672d56ef)"><g clip-path="url(#1b4ed9db25)"><path fill="#000000" d="M 205.59375 88.117188 L 253.253906 150.976562 L 207.667969 185.539062 L 160.007812 122.679688 Z M 205.59375 88.117188 " fill-opacity="1" fill-rule="nonzero"/></g></g></g><g fill="#a6a6a6" fill-opacity="0.7686"><g transform="translate(23.769308, 277.510966)"><g><path d="M 8.171875 0 L 8.171875 -28.203125 L 3.640625 -28.203125 L 3.640625 0 Z M 8.171875 0 "/></g></g></g><g fill="#ffffff" fill-opacity="1"><g transform="translate(25.671456, 275.398411)"><g><path d="M 8.171875 0 L 8.171875 -28.203125 L 3.640625 -28.203125 L 3.640625 0 Z M 8.171875 0 "/></g></g></g><g fill="#a6a6a6" fill-opacity="0.7686"><g transform="translate(35.587087, 277.510966)"><g/></g></g><g fill="#a6a6a6" fill-opacity="0.7686"><g transform="translate(44.470063, 277.510966)"><g/></g></g><g fill="#ffffff" fill-opacity="1"><g transform="translate(37.489236, 275.398411)"><g/></g></g><g fill="#ffffff" fill-opacity="1"><g transform="translate(46.372211, 275.398411)"><g/></g></g><g fill="#a6a6a6" fill-opacity="0.7686"><g transform="translate(53.359007, 277.510966)"><g><path d="M 17.90625 -3.953125 L 7.640625 -3.953125 L 7.640625 -28.203125 L 3.109375 -28.203125 L 3.109375 0 L 17.90625 0 Z M 17.90625 -3.953125 "/></g></g></g><g fill="#ffffff" fill-opacity="1"><g transform="translate(55.261156, 275.398411)"><g><path d="M 17.90625 -3.953125 L 7.640625 -3.953125 L 7.640625 -28.203125 L 3.109375 -28.203125 L 3.109375 0 L 17.90625 0 Z M 17.90625 -3.953125 "/></g></g></g><g fill="#a6a6a6" fill-opacity="0.7686"><g transform="translate(71.482949, 277.510966)"><g/></g></g><g fill="#a6a6a6" fill-opacity="0.7686"><g transform="translate(80.365925, 277.510966)"><g/></g></g><g fill="#ffffff" fill-opacity="1"><g transform="translate(73.385098, 275.398411)"><g/></g></g><g fill="#ffffff" fill-opacity="1"><g transform="translate(82.268074, 275.398411)"><g/></g></g><g fill="#a6a6a6" fill-opacity="0.7686"><g transform="translate(89.254876, 277.510966)"><g><path d="M 17.90625 -3.953125 L 7.640625 -3.953125 L 7.640625 -28.203125 L 3.109375 -28.203125 L 3.109375 0 L 17.90625 0 Z M 17.90625 -3.953125 "/></g></g></g><g fill="#ffffff" fill-opacity="1"><g transform="translate(91.157025, 275.398411)"><g><path d="M 17.90625 -3.953125 L 7.640625 -3.953125 L 7.640625 -28.203125 L 3.109375 -28.203125 L 3.109375 0 L 17.90625 0 Z M 17.90625 -3.953125 "/></g></g></g><g fill="#a6a6a6" fill-opacity="0.7686"><g transform="translate(107.378818, 277.510966)"><g/></g></g><g fill="#a6a6a6" fill-opacity="0.7686"><g transform="translate(116.261794, 277.510966)"><g/></g></g><g fill="#ffffff" fill-opacity="1"><g transform="translate(109.280967, 275.398411)"><g/></g></g><g fill="#ffffff" fill-opacity="1"><g transform="translate(118.163943, 275.398411)"><g/></g></g><g fill="#a6a6a6" fill-opacity="0.7686"><g transform="translate(125.150738, 277.510966)"><g><path d="M 16.21875 0.359375 C 19.945312 0.359375 22.046875 -1.0625 22.515625 -3.90625 C 22.578125 -4.382812 22.609375 -4.875 22.609375 -5.375 L 22.609375 -28.203125 L 17.984375 -28.203125 L 17.984375 -4.21875 C 17.929688 -3.925781 17.769531 -3.765625 17.5 -3.734375 L 7.765625 -3.734375 C 7.472656 -3.785156 7.3125 -3.945312 7.28125 -4.21875 L 7.28125 -28.203125 L 2.671875 -28.203125 L 2.671875 -5.375 C 2.671875 -2.082031 4.191406 -0.21875 7.234375 0.21875 C 7.796875 0.3125 8.40625 0.359375 9.0625 0.359375 Z M 16.21875 0.359375 "/></g></g></g><g fill="#ffffff" fill-opacity="1"><g transform="translate(127.052887, 275.398411)"><g><path d="M 16.21875 0.359375 C 19.945312 0.359375 22.046875 -1.0625 22.515625 -3.90625 C 22.578125 -4.382812 22.609375 -4.875 22.609375 -5.375 L 22.609375 -28.203125 L 17.984375 -28.203125 L 17.984375 -4.21875 C 17.929688 -3.925781 17.769531 -3.765625 17.5 -3.734375 L 7.765625 -3.734375 C 7.472656 -3.785156 7.3125 -3.945312 7.28125 -4.21875 L 7.28125 -28.203125 L 2.671875 -28.203125 L 2.671875 -5.375 C 2.671875 -2.082031 4.191406 -0.21875 7.234375 0.21875 C 7.796875 0.3125 8.40625 0.359375 9.0625 0.359375 Z M 16.21875 0.359375 "/></g></g></g><g fill="#a6a6a6" fill-opacity="0.7686"><g transform="translate(150.425695, 277.510966)"><g/></g></g><g fill="#a6a6a6" fill-opacity="1"><g transform="translate(152.327844, 275.398411)"><g/></g></g><g fill="#a6a6a6" fill-opacity="0.7686"><g transform="translate(159.316686, 277.510966)"><g/></g></g><g fill="#000000" fill-opacity="1"><g transform="translate(161.218834, 275.398411)"><g/></g></g><g fill="#a6a6a6" fill-opacity="0.7686"><g transform="translate(168.207676, 277.510966)"><g><path d="M 6.890625 -16.21875 C 6.535156 -16.269531 6.34375 -16.460938 6.3125 -16.796875 L 6.3125 -23.671875 C 6.363281 -24.023438 6.554688 -24.21875 6.890625 -24.25 L 18.875 -24.25 L 18.875 -28.203125 L 8.484375 -28.390625 C 4.960938 -28.441406 2.800781 -27.148438 2 -24.515625 C 1.789062 -23.804688 1.6875 -23.050781 1.6875 -22.25 L 1.6875 -18.078125 C 1.75 -14.140625 3.984375 -12.15625 8.390625 -12.125 L 14.5625 -12.125 C 14.925781 -12.0625 15.117188 -11.867188 15.140625 -11.546875 L 15.140625 -4.53125 C 15.085938 -4.175781 14.894531 -3.984375 14.5625 -3.953125 L 2.171875 -3.953125 L 2.171875 0 L 13.0625 0.171875 C 17.320312 0.265625 19.554688 -1.582031 19.765625 -5.375 C 19.765625 -5.550781 19.765625 -5.726562 19.765625 -5.90625 L 19.765625 -10.21875 C 19.765625 -13.769531 17.941406 -15.738281 14.296875 -16.125 C 13.859375 -16.1875 13.414062 -16.21875 12.96875 -16.21875 Z M 6.890625 -16.21875 "/></g></g></g><g fill="#a6a6a6" fill-opacity="1"><g transform="translate(170.109825, 275.398411)"><g><path d="M 6.890625 -16.21875 C 6.535156 -16.269531 6.34375 -16.460938 6.3125 -16.796875 L 6.3125 -23.671875 C 6.363281 -24.023438 6.554688 -24.21875 6.890625 -24.25 L 18.875 -24.25 L 18.875 -28.203125 L 8.484375 -28.390625 C 4.960938 -28.441406 2.800781 -27.148438 2 -24.515625 C 1.789062 -23.804688 1.6875 -23.050781 1.6875 -22.25 L 1.6875 -18.078125 C 1.75 -14.140625 3.984375 -12.15625 8.390625 -12.125 L 14.5625 -12.125 C 14.925781 -12.0625 15.117188 -11.867188 15.140625 -11.546875 L 15.140625 -4.53125 C 15.085938 -4.175781 14.894531 -3.984375 14.5625 -3.953125 L 2.171875 -3.953125 L 2.171875 0 L 13.0625 0.171875 C 17.320312 0.265625 19.554688 -1.582031 19.765625 -5.375 C 19.765625 -5.550781 19.765625 -5.726562 19.765625 -5.90625 L 19.765625 -10.21875 C 19.765625 -13.769531 17.941406 -15.738281 14.296875 -16.125 C 13.859375 -16.1875 13.414062 -16.21875 12.96875 -16.21875 Z M 6.890625 -16.21875 "/></g></g></g><g fill="#a6a6a6" fill-opacity="0.7686"><g transform="translate(189.489731, 277.510966)"><g/></g></g><g fill="#a6a6a6" fill-opacity="0.7686"><g transform="translate(198.372706, 277.510966)"><g/></g></g><g fill="#a6a6a6" fill-opacity="1"><g transform="translate(191.391879, 275.398411)"><g/></g></g><g fill="#a6a6a6" fill-opacity="1"><g transform="translate(200.274855, 275.398411)"><g/></g></g><g fill="#a6a6a6" fill-opacity="0.7686"><g transform="translate(207.261651, 277.510966)"><g><path d="M 18.5625 -4.09375 L 7.734375 -4.09375 C 7.429688 -4.144531 7.265625 -4.304688 7.234375 -4.578125 L 7.234375 -23.625 C 7.296875 -23.925781 7.460938 -24.09375 7.734375 -24.125 L 18.5625 -24.125 L 18.5625 -28.203125 L 8.96875 -28.203125 C 5.207031 -28.203125 3.109375 -26.765625 2.671875 -23.890625 C 2.609375 -23.453125 2.578125 -22.992188 2.578125 -22.515625 L 2.578125 -5.734375 C 2.578125 -2.472656 4.070312 -0.609375 7.0625 -0.140625 C 7.65625 -0.046875 8.289062 0 8.96875 0 L 18.5625 0 Z M 18.5625 -4.09375 "/></g></g></g><g fill="#a6a6a6" fill-opacity="1"><g transform="translate(209.163799, 275.398411)"><g><path d="M 18.5625 -4.09375 L 7.734375 -4.09375 C 7.429688 -4.144531 7.265625 -4.304688 7.234375 -4.578125 L 7.234375 -23.625 C 7.296875 -23.925781 7.460938 -24.09375 7.734375 -24.125 L 18.5625 -24.125 L 18.5625 -28.203125 L 8.96875 -28.203125 C 5.207031 -28.203125 3.109375 -26.765625 2.671875 -23.890625 C 2.609375 -23.453125 2.578125 -22.992188 2.578125 -22.515625 L 2.578125 -5.734375 C 2.578125 -2.472656 4.070312 -0.609375 7.0625 -0.140625 C 7.65625 -0.046875 8.289062 0 8.96875 0 L 18.5625 0 Z M 18.5625 -4.09375 "/></g></g></g><g fill="#a6a6a6" fill-opacity="0.7686"><g transform="translate(226.632745, 277.510966)"><g/></g></g><g fill="#a6a6a6" fill-opacity="0.7686"><g transform="translate(235.515721, 277.510966)"><g/></g></g><g fill="#a6a6a6" fill-opacity="1"><g transform="translate(228.534894, 275.398411)"><g/></g></g><g fill="#a6a6a6" fill-opacity="1"><g transform="translate(237.41787, 275.398411)"><g/></g></g><g fill="#a6a6a6" fill-opacity="0.7686"><g transform="translate(244.404672, 277.510966)"><g><path d="M 23.5 0 L 16.875 -28.203125 L 12.265625 -28.34375 C 10.273438 -28.375 8.941406 -27.941406 8.265625 -27.046875 C 7.753906 -26.429688 7.296875 -25.335938 6.890625 -23.765625 L 0.484375 0 L 4.703125 0 L 6.484375 -7.0625 L 17.375 -7.0625 L 18.96875 0 Z M 10.875 -23.8125 C 10.96875 -24.101562 11.132812 -24.265625 11.375 -24.296875 L 13.453125 -24.296875 L 16.53125 -10.921875 L 7.5 -10.921875 Z M 10.875 -23.8125 "/></g></g></g><g fill="#a6a6a6" fill-opacity="1"><g transform="translate(246.306821, 275.398411)"><g><path d="M 23.5 0 L 16.875 -28.203125 L 12.265625 -28.34375 C 10.273438 -28.375 8.941406 -27.941406 8.265625 -27.046875 C 7.753906 -26.429688 7.296875 -25.335938 6.890625 -23.765625 L 0.484375 0 L 4.703125 0 L 6.484375 -7.0625 L 17.375 -7.0625 L 18.96875 0 Z M 10.875 -23.8125 C 10.96875 -24.101562 11.132812 -24.265625 11.375 -24.296875 L 13.453125 -24.296875 L 16.53125 -10.921875 L 7.5 -10.921875 Z M 10.875 -23.8125 "/></g></g></g><g fill="#a6a6a6" fill-opacity="0.7686"><g transform="translate(268.301723, 277.510966)"><g/></g></g><g fill="#a6a6a6" fill-opacity="0.7686"><g transform="translate(277.184699, 277.510966)"><g/></g></g><g fill="#a6a6a6" fill-opacity="1"><g transform="translate(270.203872, 275.398411)"><g/></g></g><g fill="#a6a6a6" fill-opacity="1"><g transform="translate(279.086848, 275.398411)"><g/></g></g><g fill="#a6a6a6" fill-opacity="0.7686"><g transform="translate(286.073644, 277.510966)"><g><path d="M 7.765625 0 L 7.734375 -10.390625 L 15.015625 -10.390625 C 18.453125 -10.390625 20.582031 -11.679688 21.40625 -14.265625 C 21.644531 -15.003906 21.765625 -15.785156 21.765625 -16.609375 L 21.765625 -22.296875 C 21.765625 -26.234375 19.722656 -28.265625 15.640625 -28.390625 C 15.398438 -28.390625 15.191406 -28.390625 15.015625 -28.390625 L 3.203125 -28.203125 L 3.203125 0 Z M 16.53125 -24.4375 C 16.882812 -24.375 17.070312 -24.179688 17.09375 -23.859375 L 17.09375 -14.921875 C 17.039062 -14.566406 16.851562 -14.375 16.53125 -14.34375 L 7.734375 -14.34375 L 7.734375 -24.4375 Z M 16.53125 -24.4375 "/></g></g></g><g fill="#a6a6a6" fill-opacity="1"><g transform="translate(287.975792, 275.398411)"><g><path d="M 7.765625 0 L 7.734375 -10.390625 L 15.015625 -10.390625 C 18.453125 -10.390625 20.582031 -11.679688 21.40625 -14.265625 C 21.644531 -15.003906 21.765625 -15.785156 21.765625 -16.609375 L 21.765625 -22.296875 C 21.765625 -26.234375 19.722656 -28.265625 15.640625 -28.390625 C 15.398438 -28.390625 15.191406 -28.390625 15.015625 -28.390625 L 3.203125 -28.203125 L 3.203125 0 Z M 16.53125 -24.4375 C 16.882812 -24.375 17.070312 -24.179688 17.09375 -23.859375 L 17.09375 -14.921875 C 17.039062 -14.566406 16.851562 -14.375 16.53125 -14.34375 L 7.734375 -14.34375 L 7.734375 -24.4375 Z M 16.53125 -24.4375 "/></g></g></g><g fill="#a6a6a6" fill-opacity="0.7686"><g transform="translate(308.86435, 277.510966)"><g/></g></g><g fill="#a6a6a6" fill-opacity="0.7686"><g transform="translate(317.747326, 277.510966)"><g/></g></g><g fill="#a6a6a6" fill-opacity="1"><g transform="translate(310.766499, 275.398411)"><g/></g></g><g fill="#a6a6a6" fill-opacity="1"><g transform="translate(319.649475, 275.398411)"><g/></g></g><g fill="#a6a6a6" fill-opacity="0.7686"><g transform="translate(326.636277, 277.510966)"><g><path d="M 19.359375 0 L 19.359375 -3.953125 L 7.640625 -3.953125 L 7.640625 -12.390625 L 18.296875 -12.390625 L 18.296875 -16.296875 L 7.640625 -16.296875 L 7.640625 -24.25 L 19.140625 -24.25 L 19.140625 -28.203125 L 3.109375 -28.203125 L 3.109375 0 Z M 19.359375 0 "/></g></g></g><g fill="#a6a6a6" fill-opacity="1"><g transform="translate(328.538425, 275.398411)"><g><path d="M 19.359375 0 L 19.359375 -3.953125 L 7.640625 -3.953125 L 7.640625 -12.390625 L 18.296875 -12.390625 L 18.296875 -16.296875 L 7.640625 -16.296875 L 7.640625 -24.25 L 19.140625 -24.25 L 19.140625 -28.203125 L 3.109375 -28.203125 L 3.109375 0 Z M 19.359375 0 "/></g></g></g><g fill="#a6a6a6" fill-opacity="0.7686"><g transform="translate(347.425501, 277.510966)"><g/></g></g><g fill="#a6a6a6" fill-opacity="1"><g transform="translate(349.32765, 275.398411)"><g/></g></g></svg>